{
    "asset" : {
        "generator" : "Khronos glTF Blender I/O v1.6.16",
        "version" : "2.0"
    },
    "scene" : 0,
    "scenes" : [
        {
            "name" : "Scene",
            "nodes" : [
                0,
                1,
                2
            ]
        }
    ],
    "nodes" : [
        {
            "name" : "Light",
            "rotation" : [
                0.16907575726509094,
                0.7558803558349609,
                -0.27217137813568115,
                0.570947527885437
            ],
            "translation" : [
                4.076245307922363,
                5.903861999511719,
                -1.0054539442062378
            ]
        },
        {
            "name" : "Camera",
            "rotation" : [
                0.483536034822464,
                0.33687159419059753,
                -0.20870360732078552,
                0.7804827094078064
            ],
            "translation" : [
                7.358891487121582,
                4.958309173583984,
                6.925790786743164
            ]
        },
        {
            "mesh" : 0,
            "name" : "Plane.004"
        }
    ],
    "materials" : [
        {
            "doubleSided" : true,
            "name" : "Material.010",
            "pbrMetallicRoughness" : {
                "baseColorFactor" : [
                    0.13286706805229187,
                    0.13286706805229187,
                    0.13286706805229187,
                    1
                ],
                "metallicFactor" : 0.3801652789115906,
                "roughnessFactor" : 0.9008264541625977
            }
        }
    ],
    "meshes" : [
        {
            "name" : "Plane.009",
            "primitives" : [
                {
                    "attributes" : {
                        "POSITION" : 0,
                        "NORMAL" : 1,
                        "TEXCOORD_0" : 2
                    },
                    "indices" : 3,
                    "material" : 0
                }
            ]
        }
    ],
    "accessors" : [
        {
            "bufferView" : 0,
            "componentType" : 5126,
            "count" : 881,
            "max" : [
                0.2808469533920288,
                1.1700940132141113,
                0.2808469533920288
            ],
            "min" : [
                -0.2808469533920288,
                0,
                -0.2808469533920288
            ],
            "type" : "VEC3"
        },
        {
            "bufferView" : 1,
            "componentType" : 5126,
            "count" : 881,
            "type" : "VEC3"
        },
        {
            "bufferView" : 2,
            "componentType" : 5126,
            "count" : 881,
            "type" : "VEC2"
        },
        {
            "bufferView" : 3,
            "componentType" : 5123,
            "count" : 1368,
            "type" : "SCALAR"
        }
    ],
    "bufferViews" : [
        {
            "buffer" : 0,
            "byteLength" : 10572,
            "byteOffset" : 0
        },
        {
            "buffer" : 0,
            "byteLength" : 10572,
            "byteOffset" : 10572
        },
        {
            "buffer" : 0,
            "byteLength" : 7048,
            "byteOffset" : 21144
        },
        {
            "buffer" : 0,
            "byteLength" : 2736,
            "byteOffset" : 28192
        }
    ],
    "buffers" : [
        {
            "byteLength" : 30928,
            "uri" : "data:application/octet-stream;base64,"
        }
    ]
}
