<svg role="img" viewBox="0 0 24 24" xmlns="http://www.w3.org/2000/svg">
    <title>Codeforces</title>
    <path fill="#F8CD54" d="M4.5 7.5C5.328 7.5 6 8.172 6 9v10.5c0 .828-.672 1.5-1.5 1.5h-3C.673 21 0 20.328 0 19.5V9c0-.828.673-1.5 1.5-1.5h3z" />
    <path fill="#1C96D2" d="m13.5 3 c.828 0 1.5.672 1.5 1.5v15c0 .828-.672 1.5-1.5 1.5h-3c-.827 0-1.5-.672-1.5-1.5v-15c0-.828.673-1.5 1.5-1.5h3z" />
    <path fill="#B01F25" d="m22.5 10.5c.828 0 1.5.672 1.5 1.5v7.5c0 .828-.672 1.5-1.5 1.5h-3c-.828 0-1.5-.672-1.5-1.5V12c0-.828.672-1.5 1.5-1.5h3z" />
</svg>